<svg xmlns="http://www.w3.org/2000/svg" xmlns:xlink="http://www.w3.org/1999/xlink" width="500" zoomAndPan="magnify" viewBox="0 0 375 374.999991" height="500" preserveAspectRatio="xMidYMid meet" version="1.0"><defs><clipPath id="id1"><path d="M 148 255 L 228 255 L 228 348.75 L 148 348.75 Z M 148 255 " clip-rule="nonzero"/></clipPath><clipPath id="id2"><path d="M 9 26.25 L 366 26.25 L 366 310 L 9 310 Z M 9 26.25 " clip-rule="nonzero"/></clipPath></defs><g clip-path="url(#id1)"><path fill="rgb(92.939758%, 16.468811%, 19.60907%)" d="M 186.824219 255.914062 C 172.453125 281.535156 158.53125 307.160156 148.953125 324.660156 C 168.949219 339.855469 184.105469 348.6875 187.882812 348.6875 C 191.710938 348.6875 207.15625 339.609375 227.457031 324.039062 C 217.023438 306.265625 202.089844 280.851562 186.824219 255.914062 " fill-opacity="1" fill-rule="nonzero"/></g><g clip-path="url(#id2)"><path fill="rgb(92.939758%, 16.468811%, 19.60907%)" d="M 279.847656 26.207031 C 231.398438 26.207031 197.710938 49.242188 187.5 87.039062 C 172.738281 50.492188 143.605469 26.207031 95.152344 26.207031 C 43.9375 26.207031 0.0625 78.183594 11.871094 140.789062 C 24.261719 206.4375 83.136719 269.960938 129.617188 309.148438 C 142.289062 291.832031 160.648438 266.726562 178.121094 241.824219 C 160.609375 213.722656 143.714844 188.292969 133.769531 177.871094 C 118.417969 183.824219 98.039062 175.664062 85.558594 157.554688 C 71.511719 137.171875 61.285156 95.210938 76.917969 84.4375 C 92.554688 73.660156 128.121094 98.152344 142.175781 118.539062 C 154.433594 136.328125 155.011719 157.828125 144.574219 170.175781 C 151.367188 182.792969 167.652344 205.664062 186.121094 230.34375 C 204.738281 203.414062 221.09375 178.195312 226.628906 165.085938 C 216.089844 153.851562 219.28125 134.363281 230.894531 115.804688 C 238.523438 103.628906 260.09375 75.742188 263.3125 71.589844 C 267.847656 65.742188 272.238281 69.484375 268.808594 75.03125 C 266.21875 79.222656 234.558594 129.75 234.558594 129.75 C 233.484375 131.460938 234.003906 133.722656 235.722656 134.792969 C 237.433594 135.875 239.695312 135.351562 240.769531 133.636719 C 240.769531 133.636719 272.226562 84.484375 275.605469 79.449219 C 279.945312 72.980469 284.269531 76.765625 280.703125 82.265625 C 278.015625 86.40625 246.921875 137.488281 246.921875 137.488281 C 245.847656 139.203125 246.367188 141.460938 248.085938 142.539062 C 249.796875 143.613281 252.058594 143.085938 253.132812 141.375 C 253.132812 141.375 284.628906 93.125 288.515625 86.910156 C 292.410156 80.699219 296.035156 84.675781 292.800781 89.839844 C 289.5625 95.003906 259.285156 145.226562 259.285156 145.226562 C 258.210938 146.941406 258.730469 149.207031 260.445312 150.277344 C 262.164062 151.351562 264.421875 150.832031 265.496094 149.117188 C 265.496094 149.117188 295.9375 101.953125 300.167969 95.203125 C 304.394531 88.449219 307.539062 92.585938 305.070312 97.726562 C 302.597656 102.875 287.441406 134.253906 279.820312 146.429688 C 268.421875 164.636719 252.535156 175.855469 238.011719 171.933594 C 228.273438 184.230469 211.722656 211.972656 194.769531 241.824219 C 213.253906 266.226562 232.734375 291.113281 246.4375 308.6875 C 292.613281 269.464844 350.789062 206.179688 363.128906 140.789062 C 374.941406 78.183594 331.0625 26.207031 279.847656 26.207031 " fill-opacity="1" fill-rule="nonzero"/></g></svg>