<svg xmlns="http://www.w3.org/2000/svg" xmlns:xlink="http://www.w3.org/1999/xlink" width="500" zoomAndPan="magnify" viewBox="0 0 375 374.999991" height="500" preserveAspectRatio="xMidYMid meet" version="1.0"><defs><clipPath id="id1"><path d="M 9.546875 0 L 365.796875 0 L 365.796875 375 L 9.546875 375 Z M 9.546875 0 " clip-rule="nonzero"/></clipPath></defs><g clip-path="url(#id1)"><path fill="rgb(100%, 100%, 100%)" d="M 246.941406 177.632812 L 246.941406 59.210938 L 187.671875 0 L 128.402344 59.210938 L 128.402344 98.683594 L 9.863281 98.683594 L 9.863281 375 L 365.476562 375 L 365.476562 177.632812 Z M 88.890625 335.527344 L 49.375 335.527344 L 49.375 296.050781 L 88.890625 296.050781 Z M 88.890625 256.578125 L 49.375 256.578125 L 49.375 217.105469 L 88.890625 217.105469 Z M 88.890625 177.632812 L 49.375 177.632812 L 49.375 138.15625 L 88.890625 138.15625 Z M 207.425781 335.527344 L 167.914062 335.527344 L 167.914062 296.050781 L 207.425781 296.050781 Z M 207.425781 256.578125 L 167.914062 256.578125 L 167.914062 217.105469 L 207.425781 217.105469 Z M 207.425781 177.632812 L 167.914062 177.632812 L 167.914062 138.15625 L 207.425781 138.15625 Z M 207.425781 98.683594 L 167.914062 98.683594 L 167.914062 59.210938 L 207.425781 59.210938 Z M 325.964844 335.527344 L 286.453125 335.527344 L 286.453125 296.050781 L 325.964844 296.050781 Z M 325.964844 256.578125 L 286.453125 256.578125 L 286.453125 217.105469 L 325.964844 217.105469 Z M 325.964844 256.578125 " fill-opacity="1" fill-rule="nonzero"/></g></svg>