<svg xmlns="http://www.w3.org/2000/svg" xmlns:xlink="http://www.w3.org/1999/xlink" width="500" zoomAndPan="magnify" viewBox="0 0 375 374.999991" height="500" preserveAspectRatio="xMidYMid meet" version="1.0"><defs><clipPath id="id1"><path d="M 41 281 L 135 281 L 135 374.726562 L 41 374.726562 Z M 41 281 " clip-rule="nonzero"/></clipPath><clipPath id="id2"><path d="M 241 281 L 335 281 L 335 374.726562 L 241 374.726562 Z M 241 281 " clip-rule="nonzero"/></clipPath><clipPath id="id3"><path d="M 1 107.726562 L 269 107.726562 L 269 322 L 1 322 Z M 1 107.726562 " clip-rule="nonzero"/></clipPath></defs><g clip-path="url(#id1)"><path fill="rgb(100%, 100%, 100%)" d="M 88.078125 374.542969 C 86.546875 374.542969 85.023438 374.46875 83.5 374.320312 C 81.976562 374.171875 80.464844 373.945312 78.964844 373.648438 C 77.464844 373.351562 75.984375 372.980469 74.519531 372.535156 C 73.054688 372.09375 71.617188 371.578125 70.203125 370.992188 C 68.789062 370.40625 67.410156 369.753906 66.058594 369.035156 C 64.710938 368.316406 63.402344 367.53125 62.128906 366.679688 C 60.855469 365.832031 59.628906 364.921875 58.445312 363.953125 C 57.265625 362.984375 56.132812 361.957031 55.050781 360.878906 C 53.96875 359.796875 52.941406 358.667969 51.972656 357.484375 C 51 356.304688 50.089844 355.078125 49.242188 353.808594 C 48.390625 352.535156 47.605469 351.226562 46.886719 349.878906 C 46.164062 348.53125 45.511719 347.152344 44.925781 345.738281 C 44.339844 344.328125 43.824219 342.890625 43.382812 341.429688 C 42.9375 339.964844 42.566406 338.484375 42.269531 336.988281 C 41.96875 335.488281 41.746094 333.976562 41.59375 332.457031 C 41.445312 330.9375 41.371094 329.410156 41.371094 327.882812 C 41.371094 326.355469 41.445312 324.832031 41.59375 323.308594 C 41.746094 321.789062 41.96875 320.277344 42.269531 318.78125 C 42.566406 317.28125 42.9375 315.800781 43.382812 314.339844 C 43.824219 312.875 44.339844 311.4375 44.925781 310.027344 C 45.511719 308.617188 46.164062 307.234375 46.886719 305.886719 C 47.605469 304.539062 48.390625 303.230469 49.242188 301.960938 C 50.089844 300.6875 51 299.464844 51.972656 298.28125 C 52.941406 297.101562 53.96875 295.96875 55.050781 294.890625 C 56.132812 293.808594 57.265625 292.785156 58.445312 291.8125 C 59.628906 290.84375 60.855469 289.933594 62.128906 289.085938 C 63.402344 288.238281 64.710938 287.453125 66.058594 286.730469 C 67.410156 286.011719 68.789062 285.359375 70.203125 284.773438 C 71.617188 284.191406 73.054688 283.675781 74.519531 283.230469 C 75.984375 282.789062 77.464844 282.417969 78.964844 282.117188 C 80.464844 281.820312 81.976562 281.597656 83.5 281.445312 C 85.023438 281.296875 86.546875 281.222656 88.078125 281.222656 C 89.609375 281.222656 91.132812 281.296875 92.65625 281.445312 C 94.179688 281.597656 95.691406 281.820312 97.191406 282.117188 C 98.691406 282.417969 100.171875 282.789062 101.636719 283.230469 C 103.101562 283.675781 104.539062 284.191406 105.953125 284.773438 C 107.367188 285.359375 108.746094 286.011719 110.097656 286.730469 C 111.445312 287.453125 112.757812 288.238281 114.027344 289.085938 C 115.300781 289.933594 116.527344 290.84375 117.710938 291.8125 C 118.890625 292.785156 120.023438 293.808594 121.105469 294.890625 C 122.1875 295.96875 123.214844 297.101562 124.183594 298.28125 C 125.15625 299.464844 126.066406 300.6875 126.914062 301.960938 C 127.765625 303.230469 128.550781 304.539062 129.269531 305.886719 C 129.992188 307.234375 130.644531 308.617188 131.230469 310.027344 C 131.816406 311.4375 132.332031 312.875 132.773438 314.339844 C 133.21875 315.800781 133.589844 317.28125 133.890625 318.78125 C 134.1875 320.277344 134.410156 321.789062 134.5625 323.308594 C 134.710938 324.832031 134.785156 326.355469 134.785156 327.882812 C 134.785156 329.410156 134.710938 330.9375 134.5625 332.457031 C 134.410156 333.976562 134.1875 335.488281 133.890625 336.988281 C 133.589844 338.484375 133.21875 339.964844 132.773438 341.429688 C 132.332031 342.890625 131.816406 344.328125 131.230469 345.738281 C 130.644531 347.152344 129.992188 348.53125 129.269531 349.878906 C 128.550781 351.226562 127.765625 352.535156 126.914062 353.808594 C 126.066406 355.078125 125.15625 356.304688 124.183594 357.484375 C 123.214844 358.667969 122.1875 359.796875 121.105469 360.878906 C 120.023438 361.957031 118.890625 362.984375 117.710938 363.953125 C 116.527344 364.921875 115.300781 365.832031 114.027344 366.679688 C 112.757812 367.53125 111.445312 368.316406 110.097656 369.035156 C 108.746094 369.753906 107.367188 370.40625 105.953125 370.992188 C 104.539062 371.578125 103.101562 372.089844 101.636719 372.535156 C 100.171875 372.980469 98.691406 373.351562 97.191406 373.648438 C 95.691406 373.945312 94.179688 374.171875 92.65625 374.320312 C 91.132812 374.46875 89.609375 374.542969 88.078125 374.542969 Z M 88.078125 307.886719 C 87.421875 307.886719 86.769531 307.917969 86.117188 307.980469 C 85.464844 308.046875 84.816406 308.140625 84.171875 308.269531 C 83.53125 308.398438 82.894531 308.558594 82.265625 308.746094 C 81.640625 308.9375 81.023438 309.15625 80.417969 309.40625 C 79.8125 309.660156 79.21875 309.9375 78.640625 310.246094 C 78.0625 310.554688 77.503906 310.890625 76.957031 311.257812 C 76.410156 311.621094 75.886719 312.007812 75.378906 312.425781 C 74.871094 312.839844 74.386719 313.28125 73.921875 313.742188 C 73.460938 314.207031 73.019531 314.691406 72.605469 315.195312 C 72.1875 315.703125 71.796875 316.230469 71.433594 316.773438 C 71.070312 317.316406 70.734375 317.878906 70.425781 318.457031 C 70.113281 319.035156 69.835938 319.625 69.585938 320.230469 C 69.332031 320.835938 69.113281 321.453125 68.921875 322.078125 C 68.730469 322.707031 68.574219 323.339844 68.445312 323.980469 C 68.316406 324.625 68.222656 325.273438 68.15625 325.921875 C 68.09375 326.574219 68.058594 327.230469 68.058594 327.882812 C 68.058594 328.539062 68.09375 329.191406 68.15625 329.84375 C 68.222656 330.496094 68.316406 331.140625 68.445312 331.785156 C 68.574219 332.425781 68.730469 333.0625 68.921875 333.6875 C 69.113281 334.316406 69.332031 334.929688 69.585938 335.535156 C 69.835938 336.140625 70.113281 336.734375 70.425781 337.308594 C 70.734375 337.886719 71.070312 338.449219 71.433594 338.992188 C 71.796875 339.539062 72.1875 340.0625 72.605469 340.570312 C 73.019531 341.074219 73.460938 341.5625 73.921875 342.023438 C 74.386719 342.488281 74.871094 342.925781 75.378906 343.34375 C 75.886719 343.757812 76.410156 344.148438 76.957031 344.511719 C 77.503906 344.875 78.0625 345.210938 78.640625 345.519531 C 79.21875 345.828125 79.8125 346.109375 80.417969 346.359375 C 81.023438 346.609375 81.640625 346.828125 82.265625 347.019531 C 82.894531 347.210938 83.53125 347.367188 84.171875 347.496094 C 84.816406 347.625 85.464844 347.71875 86.117188 347.785156 C 86.769531 347.847656 87.421875 347.882812 88.078125 347.882812 C 88.734375 347.882812 89.386719 347.847656 90.039062 347.785156 C 90.691406 347.71875 91.339844 347.625 91.984375 347.496094 C 92.625 347.367188 93.261719 347.210938 93.890625 347.019531 C 94.515625 346.828125 95.132812 346.609375 95.738281 346.359375 C 96.34375 346.109375 96.9375 345.828125 97.515625 345.519531 C 98.09375 345.210938 98.65625 344.875 99.199219 344.511719 C 99.746094 344.148438 100.269531 343.757812 100.777344 343.34375 C 101.285156 342.925781 101.769531 342.488281 102.234375 342.023438 C 102.695312 341.5625 103.136719 341.074219 103.550781 340.570312 C 103.96875 340.0625 104.359375 339.539062 104.722656 338.992188 C 105.085938 338.449219 105.421875 337.886719 105.730469 337.308594 C 106.042969 336.734375 106.320312 336.140625 106.574219 335.535156 C 106.824219 334.929688 107.042969 334.316406 107.234375 333.6875 C 107.425781 333.0625 107.582031 332.425781 107.710938 331.785156 C 107.839844 331.140625 107.933594 330.496094 108 329.84375 C 108.0625 329.191406 108.097656 328.539062 108.097656 327.882812 C 108.097656 327.230469 108.0625 326.574219 108 325.921875 C 107.933594 325.273438 107.839844 324.625 107.710938 323.980469 C 107.582031 323.339844 107.425781 322.707031 107.234375 322.078125 C 107.042969 321.453125 106.824219 320.835938 106.574219 320.230469 C 106.320312 319.625 106.042969 319.035156 105.730469 318.457031 C 105.421875 317.878906 105.085938 317.316406 104.722656 316.773438 C 104.359375 316.230469 103.96875 315.703125 103.550781 315.195312 C 103.136719 314.691406 102.695312 314.207031 102.234375 313.742188 C 101.769531 313.28125 101.285156 312.839844 100.777344 312.425781 C 100.269531 312.007812 99.746094 311.621094 99.199219 311.257812 C 98.65625 310.890625 98.09375 310.554688 97.515625 310.246094 C 96.9375 309.9375 96.34375 309.660156 95.738281 309.40625 C 95.132812 309.15625 94.515625 308.9375 93.890625 308.746094 C 93.261719 308.558594 92.625 308.398438 91.984375 308.269531 C 91.339844 308.140625 90.691406 308.046875 90.039062 307.980469 C 89.386719 307.917969 88.734375 307.886719 88.078125 307.886719 Z M 88.078125 307.886719 " fill-opacity="1" fill-rule="nonzero"/></g><g clip-path="url(#id2)"><path fill="rgb(100%, 100%, 100%)" d="M 288.257812 374.542969 C 286.726562 374.542969 285.199219 374.46875 283.679688 374.320312 C 282.15625 374.171875 280.644531 373.945312 279.144531 373.648438 C 277.644531 373.351562 276.160156 372.980469 274.699219 372.535156 C 273.234375 372.09375 271.796875 371.578125 270.382812 370.992188 C 268.96875 370.40625 267.585938 369.753906 266.238281 369.035156 C 264.890625 368.316406 263.578125 367.53125 262.304688 366.679688 C 261.035156 365.832031 259.808594 364.921875 258.625 363.953125 C 257.441406 362.984375 256.308594 361.957031 255.230469 360.878906 C 254.148438 359.796875 253.121094 358.667969 252.148438 357.484375 C 251.179688 356.304688 250.269531 355.078125 249.417969 353.808594 C 248.570312 352.535156 247.785156 351.226562 247.0625 349.878906 C 246.34375 348.53125 245.6875 347.152344 245.101562 345.738281 C 244.519531 344.328125 244.003906 342.890625 243.558594 341.429688 C 243.117188 339.964844 242.742188 338.484375 242.445312 336.988281 C 242.148438 335.488281 241.921875 333.976562 241.773438 332.457031 C 241.621094 330.9375 241.546875 329.410156 241.546875 327.882812 C 241.546875 326.355469 241.621094 324.832031 241.773438 323.308594 C 241.921875 321.789062 242.148438 320.277344 242.445312 318.78125 C 242.742188 317.28125 243.117188 315.800781 243.558594 314.339844 C 244.003906 312.875 244.519531 311.4375 245.101562 310.027344 C 245.6875 308.617188 246.34375 307.234375 247.0625 305.886719 C 247.785156 304.539062 248.570312 303.230469 249.417969 301.960938 C 250.269531 300.6875 251.179688 299.464844 252.148438 298.28125 C 253.121094 297.101562 254.148438 295.96875 255.230469 294.890625 C 256.308594 293.808594 257.441406 292.785156 258.625 291.8125 C 259.808594 290.84375 261.035156 289.933594 262.304688 289.085938 C 263.578125 288.238281 264.890625 287.453125 266.238281 286.730469 C 267.585938 286.011719 268.96875 285.359375 270.382812 284.773438 C 271.796875 284.191406 273.234375 283.675781 274.699219 283.230469 C 276.160156 282.789062 277.644531 282.417969 279.144531 282.117188 C 280.644531 281.820312 282.15625 281.597656 283.679688 281.445312 C 285.199219 281.296875 286.726562 281.222656 288.257812 281.222656 C 289.785156 281.222656 291.3125 281.296875 292.835938 281.445312 C 294.355469 281.597656 295.867188 281.820312 297.367188 282.117188 C 298.867188 282.417969 300.351562 282.789062 301.816406 283.230469 C 303.277344 283.675781 304.71875 284.191406 306.128906 284.773438 C 307.542969 285.359375 308.925781 286.011719 310.273438 286.730469 C 311.625 287.453125 312.933594 288.238281 314.207031 289.085938 C 315.476562 289.933594 316.703125 290.84375 317.886719 291.8125 C 319.070312 292.785156 320.203125 293.808594 321.285156 294.890625 C 322.367188 295.96875 323.390625 297.101562 324.363281 298.28125 C 325.332031 299.464844 326.242188 300.6875 327.09375 301.960938 C 327.941406 303.230469 328.726562 304.539062 329.449219 305.886719 C 330.171875 307.234375 330.824219 308.617188 331.410156 310.027344 C 331.996094 311.4375 332.507812 312.875 332.953125 314.339844 C 333.398438 315.800781 333.769531 317.28125 334.066406 318.78125 C 334.367188 320.277344 334.589844 321.789062 334.738281 323.308594 C 334.890625 324.832031 334.964844 326.355469 334.964844 327.882812 C 334.964844 329.410156 334.890625 330.9375 334.738281 332.457031 C 334.589844 333.976562 334.367188 335.488281 334.066406 336.988281 C 333.769531 338.484375 333.398438 339.964844 332.953125 341.429688 C 332.507812 342.890625 331.996094 344.328125 331.410156 345.738281 C 330.824219 347.152344 330.171875 348.53125 329.449219 349.878906 C 328.726562 351.226562 327.941406 352.535156 327.09375 353.808594 C 326.242188 355.078125 325.332031 356.304688 324.363281 357.484375 C 323.390625 358.667969 322.367188 359.796875 321.285156 360.878906 C 320.203125 361.957031 319.070312 362.984375 317.886719 363.953125 C 316.703125 364.921875 315.476562 365.832031 314.207031 366.679688 C 312.933594 367.53125 311.625 368.316406 310.273438 369.035156 C 308.925781 369.753906 307.542969 370.40625 306.128906 370.992188 C 304.71875 371.578125 303.277344 372.089844 301.816406 372.535156 C 300.351562 372.980469 298.867188 373.351562 297.367188 373.648438 C 295.867188 373.945312 294.355469 374.171875 292.835938 374.320312 C 291.3125 374.46875 289.785156 374.542969 288.257812 374.542969 Z M 288.257812 307.886719 C 287.601562 307.886719 286.945312 307.917969 286.292969 307.980469 C 285.640625 308.046875 284.992188 308.140625 284.351562 308.269531 C 283.707031 308.398438 283.074219 308.558594 282.445312 308.746094 C 281.816406 308.9375 281.203125 309.15625 280.597656 309.40625 C 279.988281 309.660156 279.398438 309.9375 278.820312 310.246094 C 278.242188 310.554688 277.679688 310.890625 277.136719 311.257812 C 276.589844 311.621094 276.0625 312.007812 275.558594 312.425781 C 275.050781 312.839844 274.566406 313.28125 274.101562 313.742188 C 273.636719 314.207031 273.199219 314.691406 272.78125 315.195312 C 272.367188 315.703125 271.976562 316.230469 271.613281 316.773438 C 271.246094 317.316406 270.910156 317.878906 270.601562 318.457031 C 270.292969 319.035156 270.011719 319.625 269.761719 320.230469 C 269.511719 320.835938 269.289062 321.453125 269.101562 322.078125 C 268.910156 322.707031 268.75 323.339844 268.621094 323.980469 C 268.496094 324.625 268.398438 325.273438 268.335938 325.921875 C 268.269531 326.574219 268.238281 327.230469 268.238281 327.882812 C 268.238281 328.539062 268.269531 329.191406 268.335938 329.84375 C 268.398438 330.496094 268.496094 331.140625 268.621094 331.785156 C 268.75 332.425781 268.910156 333.0625 269.101562 333.6875 C 269.289062 334.316406 269.511719 334.929688 269.761719 335.535156 C 270.011719 336.140625 270.292969 336.734375 270.601562 337.308594 C 270.910156 337.886719 271.246094 338.449219 271.613281 338.992188 C 271.976562 339.539062 272.367188 340.0625 272.78125 340.570312 C 273.199219 341.078125 273.636719 341.5625 274.101562 342.023438 C 274.566406 342.488281 275.050781 342.925781 275.558594 343.34375 C 276.0625 343.757812 276.589844 344.148438 277.136719 344.511719 C 277.679688 344.875 278.242188 345.210938 278.820312 345.519531 C 279.398438 345.828125 279.988281 346.109375 280.597656 346.359375 C 281.203125 346.609375 281.816406 346.828125 282.445312 347.019531 C 283.074219 347.210938 283.707031 347.367188 284.351562 347.496094 C 284.992188 347.625 285.640625 347.71875 286.292969 347.785156 C 286.945312 347.847656 287.601562 347.882812 288.257812 347.882812 C 288.910156 347.882812 289.566406 347.847656 290.21875 347.785156 C 290.871094 347.71875 291.519531 347.625 292.160156 347.496094 C 292.804688 347.367188 293.441406 347.210938 294.066406 347.019531 C 294.695312 346.828125 295.3125 346.609375 295.917969 346.359375 C 296.523438 346.109375 297.113281 345.828125 297.691406 345.519531 C 298.269531 345.210938 298.832031 344.875 299.378906 344.511719 C 299.921875 344.148438 300.449219 343.757812 300.957031 343.34375 C 301.460938 342.925781 301.949219 342.488281 302.410156 342.023438 C 302.875 341.5625 303.3125 341.078125 303.730469 340.570312 C 304.144531 340.0625 304.535156 339.539062 304.898438 338.992188 C 305.265625 338.449219 305.601562 337.886719 305.910156 337.308594 C 306.21875 336.734375 306.5 336.140625 306.75 335.535156 C 307 334.929688 307.222656 334.316406 307.410156 333.6875 C 307.601562 333.0625 307.761719 332.425781 307.890625 331.785156 C 308.015625 331.140625 308.113281 330.496094 308.175781 329.84375 C 308.242188 329.191406 308.273438 328.539062 308.273438 327.882812 C 308.273438 327.230469 308.242188 326.574219 308.175781 325.921875 C 308.113281 325.273438 308.015625 324.625 307.890625 323.980469 C 307.761719 323.339844 307.601562 322.707031 307.410156 322.078125 C 307.222656 321.453125 307 320.835938 306.75 320.230469 C 306.5 319.625 306.21875 319.035156 305.910156 318.457031 C 305.601562 317.878906 305.265625 317.316406 304.902344 316.773438 C 304.535156 316.230469 304.144531 315.703125 303.730469 315.195312 C 303.3125 314.691406 302.875 314.207031 302.410156 313.742188 C 301.949219 313.28125 301.460938 312.839844 300.957031 312.425781 C 300.449219 312.007812 299.921875 311.621094 299.378906 311.257812 C 298.832031 310.890625 298.269531 310.554688 297.691406 310.246094 C 297.113281 309.9375 296.523438 309.660156 295.917969 309.40625 C 295.3125 309.15625 294.695312 308.9375 294.066406 308.746094 C 293.441406 308.558594 292.804688 308.398438 292.160156 308.269531 C 291.519531 308.140625 290.871094 308.046875 290.21875 307.980469 C 289.566406 307.917969 288.910156 307.886719 288.257812 307.886719 Z M 288.257812 307.886719 " fill-opacity="1" fill-rule="nonzero"/></g><g clip-path="url(#id3)"><path fill="rgb(100%, 100%, 100%)" d="M 214.859375 321.21875 L 173.21875 321.21875 C 172.34375 321.21875 171.476562 321.132812 170.617188 320.960938 C 169.757812 320.789062 168.921875 320.539062 168.113281 320.203125 C 167.304688 319.867188 166.535156 319.457031 165.804688 318.972656 C 165.078125 318.484375 164.402344 317.933594 163.785156 317.3125 C 163.164062 316.695312 162.609375 316.019531 162.125 315.292969 C 161.636719 314.566406 161.226562 313.796875 160.890625 312.988281 C 160.554688 312.179688 160.304688 311.34375 160.132812 310.488281 C 159.960938 309.628906 159.875 308.761719 159.875 307.886719 C 159.875 307.011719 159.960938 306.144531 160.132812 305.285156 C 160.304688 304.425781 160.554688 303.59375 160.890625 302.785156 C 161.226562 301.976562 161.636719 301.207031 162.125 300.480469 C 162.609375 299.75 163.164062 299.078125 163.785156 298.457031 C 164.402344 297.839844 165.078125 297.289062 165.804688 296.800781 C 166.535156 296.316406 167.304688 295.902344 168.113281 295.570312 C 168.921875 295.234375 169.757812 294.980469 170.617188 294.808594 C 171.476562 294.640625 172.34375 294.554688 173.21875 294.554688 L 204.046875 294.554688 L 238.34375 134.574219 L 64.859375 134.574219 L 31.226562 294.554688 L 40.167969 294.554688 C 41.046875 294.554688 41.914062 294.640625 42.773438 294.808594 C 43.632812 294.980469 44.464844 295.234375 45.277344 295.570312 C 46.085938 295.902344 46.855469 296.316406 47.582031 296.800781 C 48.3125 297.289062 48.984375 297.839844 49.605469 298.457031 C 50.226562 299.078125 50.777344 299.75 51.265625 300.480469 C 51.753906 301.207031 52.164062 301.976562 52.5 302.785156 C 52.832031 303.59375 53.085938 304.425781 53.257812 305.285156 C 53.429688 306.144531 53.515625 307.011719 53.515625 307.886719 C 53.515625 308.761719 53.429688 309.628906 53.257812 310.488281 C 53.085938 311.34375 52.832031 312.179688 52.5 312.988281 C 52.164062 313.796875 51.753906 314.566406 51.265625 315.292969 C 50.777344 316.019531 50.226562 316.695312 49.605469 317.3125 C 48.984375 317.933594 48.3125 318.484375 47.582031 318.972656 C 46.855469 319.457031 46.085938 319.867188 45.277344 320.203125 C 44.464844 320.539062 43.632812 320.789062 42.773438 320.960938 C 41.914062 321.132812 41.046875 321.21875 40.167969 321.21875 L 14.679688 321.21875 C 14.175781 321.230469 13.675781 321.210938 13.175781 321.167969 C 12.675781 321.121094 12.179688 321.046875 11.6875 320.945312 C 11.195312 320.84375 10.710938 320.714844 10.234375 320.558594 C 9.753906 320.40625 9.289062 320.222656 8.832031 320.011719 C 8.375 319.804688 7.929688 319.570312 7.5 319.3125 C 7.070312 319.054688 6.65625 318.769531 6.257812 318.464844 C 5.859375 318.160156 5.480469 317.832031 5.117188 317.484375 C 4.753906 317.136719 4.414062 316.769531 4.09375 316.382812 C 3.773438 315.996094 3.476562 315.589844 3.203125 315.171875 C 2.929688 314.75 2.679688 314.316406 2.453125 313.867188 C 2.226562 313.417969 2.027344 312.960938 1.855469 312.488281 C 1.683594 312.015625 1.535156 311.539062 1.417969 311.050781 C 1.296875 310.5625 1.207031 310.070312 1.144531 309.574219 C 1.078125 309.074219 1.042969 308.574219 1.039062 308.074219 C 1.03125 307.570312 1.050781 307.070312 1.101562 306.570312 C 1.152344 306.070312 1.230469 305.578125 1.335938 305.085938 L 41.371094 118.441406 C 41.53125 117.691406 41.757812 116.957031 42.046875 116.242188 C 42.332031 115.53125 42.683594 114.847656 43.089844 114.195312 C 43.496094 113.539062 43.957031 112.925781 44.46875 112.351562 C 44.984375 111.78125 45.542969 111.253906 46.144531 110.777344 C 46.75 110.300781 47.390625 109.878906 48.070312 109.511719 C 48.746094 109.144531 49.449219 108.839844 50.179688 108.597656 C 50.910156 108.351562 51.65625 108.171875 52.417969 108.058594 C 53.179688 107.941406 53.945312 107.894531 54.714844 107.910156 L 254.894531 107.910156 C 255.394531 107.898438 255.898438 107.914062 256.398438 107.960938 C 256.898438 108.007812 257.394531 108.078125 257.886719 108.179688 C 258.378906 108.28125 258.863281 108.410156 259.339844 108.566406 C 259.816406 108.722656 260.285156 108.90625 260.742188 109.113281 C 261.199219 109.324219 261.640625 109.554688 262.070312 109.816406 C 262.503906 110.074219 262.917969 110.355469 263.316406 110.660156 C 263.714844 110.96875 264.09375 111.292969 264.457031 111.640625 C 264.816406 111.992188 265.160156 112.359375 265.476562 112.746094 C 265.796875 113.132812 266.09375 113.535156 266.371094 113.957031 C 266.644531 114.375 266.894531 114.8125 267.121094 115.257812 C 267.34375 115.707031 267.542969 116.167969 267.71875 116.640625 C 267.890625 117.109375 268.035156 117.589844 268.15625 118.078125 C 268.273438 118.5625 268.367188 119.058594 268.429688 119.554688 C 268.492188 120.054688 268.527344 120.550781 268.535156 121.054688 C 268.542969 121.554688 268.519531 122.058594 268.472656 122.554688 C 268.421875 123.054688 268.34375 123.550781 268.238281 124.042969 L 228.203125 310.6875 C 228.042969 311.4375 227.816406 312.171875 227.527344 312.882812 C 227.238281 313.597656 226.890625 314.28125 226.484375 314.933594 C 226.078125 315.585938 225.617188 316.199219 225.105469 316.773438 C 224.589844 317.347656 224.03125 317.875 223.425781 318.351562 C 222.824219 318.828125 222.183594 319.25 221.503906 319.613281 C 220.828125 319.980469 220.125 320.285156 219.394531 320.53125 C 218.664062 320.773438 217.917969 320.953125 217.15625 321.070312 C 216.394531 321.1875 215.628906 321.234375 214.859375 321.21875 Z M 214.859375 321.21875 " fill-opacity="1" fill-rule="nonzero"/></g><path fill="rgb(100%, 100%, 100%)" d="M 173.085938 321.21875 L 114.769531 321.21875 C 113.890625 321.21875 113.023438 321.132812 112.164062 320.960938 C 111.304688 320.789062 110.472656 320.539062 109.660156 320.203125 C 108.851562 319.867188 108.082031 319.457031 107.355469 318.972656 C 106.625 318.484375 105.953125 317.933594 105.332031 317.3125 C 104.710938 316.695312 104.160156 316.019531 103.671875 315.292969 C 103.1875 314.566406 102.773438 313.796875 102.4375 312.988281 C 102.105469 312.179688 101.851562 311.34375 101.679688 310.488281 C 101.507812 309.628906 101.421875 308.761719 101.421875 307.886719 C 101.421875 307.011719 101.507812 306.144531 101.679688 305.285156 C 101.851562 304.425781 102.105469 303.59375 102.4375 302.785156 C 102.773438 301.976562 103.1875 301.207031 103.671875 300.480469 C 104.160156 299.75 104.710938 299.078125 105.332031 298.457031 C 105.953125 297.839844 106.625 297.289062 107.355469 296.800781 C 108.082031 296.316406 108.851562 295.902344 109.660156 295.570312 C 110.472656 295.234375 111.304688 294.980469 112.164062 294.808594 C 113.023438 294.640625 113.890625 294.554688 114.769531 294.554688 L 173.085938 294.554688 C 173.964844 294.554688 174.832031 294.640625 175.691406 294.808594 C 176.550781 294.980469 177.382812 295.234375 178.195312 295.570312 C 179.003906 295.902344 179.773438 296.316406 180.5 296.800781 C 181.230469 297.289062 181.902344 297.839844 182.523438 298.457031 C 183.144531 299.078125 183.695312 299.75 184.183594 300.480469 C 184.671875 301.207031 185.082031 301.976562 185.417969 302.785156 C 185.75 303.59375 186.003906 304.425781 186.175781 305.285156 C 186.347656 306.144531 186.433594 307.011719 186.433594 307.886719 C 186.433594 308.761719 186.347656 309.628906 186.175781 310.488281 C 186.003906 311.34375 185.75 312.179688 185.417969 312.988281 C 185.082031 313.796875 184.671875 314.566406 184.183594 315.292969 C 183.695312 316.019531 183.144531 316.695312 182.523438 317.3125 C 181.902344 317.933594 181.230469 318.484375 180.5 318.972656 C 179.773438 319.457031 179.003906 319.867188 178.195312 320.203125 C 177.382812 320.539062 176.550781 320.789062 175.691406 320.960938 C 174.832031 321.132812 173.964844 321.21875 173.085938 321.21875 Z M 173.085938 321.21875 " fill-opacity="1" fill-rule="nonzero"/><path fill="rgb(100%, 100%, 100%)" d="M 61.386719 321.21875 L 40.167969 321.21875 C 39.292969 321.21875 38.425781 321.132812 37.566406 320.960938 C 36.707031 320.789062 35.871094 320.539062 35.0625 320.203125 C 34.253906 319.867188 33.484375 319.457031 32.753906 318.972656 C 32.027344 318.484375 31.351562 317.933594 30.734375 317.3125 C 30.113281 316.695312 29.558594 316.019531 29.074219 315.292969 C 28.585938 314.566406 28.175781 313.796875 27.839844 312.988281 C 27.503906 312.179688 27.25 311.34375 27.082031 310.488281 C 26.910156 309.628906 26.824219 308.761719 26.824219 307.886719 C 26.824219 307.011719 26.910156 306.144531 27.082031 305.285156 C 27.25 304.425781 27.503906 303.59375 27.839844 302.785156 C 28.175781 301.976562 28.585938 301.207031 29.074219 300.480469 C 29.558594 299.75 30.113281 299.078125 30.734375 298.457031 C 31.351562 297.839844 32.027344 297.289062 32.753906 296.800781 C 33.484375 296.316406 34.253906 295.902344 35.0625 295.570312 C 35.871094 295.234375 36.707031 294.980469 37.566406 294.808594 C 38.425781 294.640625 39.292969 294.554688 40.167969 294.554688 L 61.386719 294.554688 C 62.265625 294.554688 63.132812 294.640625 63.992188 294.808594 C 64.851562 294.980469 65.683594 295.234375 66.496094 295.570312 C 67.304688 295.902344 68.074219 296.316406 68.800781 296.800781 C 69.53125 297.289062 70.203125 297.839844 70.824219 298.457031 C 71.445312 299.078125 71.996094 299.75 72.484375 300.480469 C 72.972656 301.207031 73.382812 301.976562 73.71875 302.785156 C 74.050781 303.59375 74.304688 304.425781 74.476562 305.285156 C 74.648438 306.144531 74.734375 307.011719 74.734375 307.886719 C 74.734375 308.761719 74.648438 309.628906 74.476562 310.488281 C 74.304688 311.34375 74.050781 312.179688 73.71875 312.988281 C 73.382812 313.796875 72.972656 314.566406 72.484375 315.292969 C 71.996094 316.019531 71.445312 316.695312 70.824219 317.3125 C 70.203125 317.933594 69.53125 318.484375 68.800781 318.972656 C 68.074219 319.457031 67.304688 319.867188 66.496094 320.203125 C 65.683594 320.539062 64.851562 320.789062 63.992188 320.960938 C 63.132812 321.132812 62.265625 321.21875 61.386719 321.21875 Z M 61.386719 321.21875 " fill-opacity="1" fill-rule="nonzero"/><path fill="rgb(100%, 100%, 100%)" d="M 348.308594 321.21875 L 314.945312 321.21875 C 314.070312 321.21875 313.203125 321.132812 312.34375 320.960938 C 311.484375 320.789062 310.648438 320.539062 309.839844 320.203125 C 309.03125 319.867188 308.261719 319.457031 307.53125 318.972656 C 306.804688 318.484375 306.128906 317.933594 305.511719 317.3125 C 304.890625 316.695312 304.335938 316.019531 303.851562 315.292969 C 303.363281 314.566406 302.953125 313.796875 302.617188 312.988281 C 302.28125 312.179688 302.027344 311.34375 301.859375 310.488281 C 301.6875 309.628906 301.601562 308.761719 301.601562 307.886719 C 301.601562 307.011719 301.6875 306.144531 301.859375 305.285156 C 302.027344 304.425781 302.28125 303.59375 302.617188 302.785156 C 302.953125 301.976562 303.363281 301.207031 303.851562 300.480469 C 304.335938 299.75 304.890625 299.078125 305.511719 298.457031 C 306.128906 297.839844 306.804688 297.289062 307.53125 296.800781 C 308.261719 296.316406 309.03125 295.902344 309.839844 295.570312 C 310.648438 295.234375 311.484375 294.980469 312.34375 294.808594 C 313.203125 294.640625 314.070312 294.554688 314.945312 294.554688 L 336.964844 294.554688 L 347.507812 231.628906 L 301.867188 174.570312 L 256.894531 174.570312 L 231.40625 294.554688 L 261.566406 294.554688 C 262.441406 294.554688 263.308594 294.640625 264.167969 294.808594 C 265.027344 294.980469 265.863281 295.234375 266.671875 295.570312 C 267.480469 295.902344 268.25 296.316406 268.980469 296.800781 C 269.707031 297.289062 270.382812 297.839844 271.003906 298.457031 C 271.621094 299.078125 272.175781 299.75 272.660156 300.480469 C 273.148438 301.207031 273.558594 301.976562 273.894531 302.785156 C 274.230469 303.59375 274.484375 304.425781 274.65625 305.285156 C 274.824219 306.144531 274.910156 307.011719 274.910156 307.886719 C 274.910156 308.761719 274.824219 309.628906 274.65625 310.488281 C 274.484375 311.34375 274.230469 312.179688 273.894531 312.988281 C 273.558594 313.796875 273.148438 314.566406 272.660156 315.292969 C 272.175781 316.019531 271.621094 316.695312 271.003906 317.3125 C 270.382812 317.933594 269.707031 318.484375 268.980469 318.972656 C 268.25 319.457031 267.480469 319.867188 266.671875 320.203125 C 265.863281 320.539062 265.027344 320.789062 264.167969 320.960938 C 263.308594 321.132812 262.441406 321.21875 261.566406 321.21875 L 214.859375 321.21875 C 214.355469 321.230469 213.855469 321.210938 213.355469 321.167969 C 212.855469 321.121094 212.355469 321.046875 211.867188 320.945312 C 211.375 320.84375 210.886719 320.714844 210.410156 320.558594 C 209.933594 320.40625 209.464844 320.222656 209.007812 320.011719 C 208.554688 319.804688 208.109375 319.570312 207.679688 319.3125 C 207.25 319.054688 206.832031 318.769531 206.433594 318.464844 C 206.035156 318.160156 205.65625 317.832031 205.296875 317.484375 C 204.933594 317.136719 204.59375 316.769531 204.273438 316.382812 C 203.953125 315.996094 203.65625 315.589844 203.382812 315.171875 C 203.105469 314.75 202.855469 314.316406 202.632812 313.867188 C 202.40625 313.417969 202.207031 312.960938 202.035156 312.488281 C 201.859375 312.015625 201.714844 311.539062 201.59375 311.050781 C 201.476562 310.5625 201.382812 310.070312 201.320312 309.574219 C 201.257812 309.074219 201.222656 308.574219 201.214844 308.074219 C 201.207031 307.570312 201.230469 307.070312 201.28125 306.570312 C 201.328125 306.070312 201.40625 305.578125 201.511719 305.085938 L 232.738281 159.238281 C 232.902344 158.484375 233.125 157.75 233.414062 157.039062 C 233.703125 156.324219 234.050781 155.640625 234.457031 154.988281 C 234.867188 154.335938 235.324219 153.722656 235.839844 153.148438 C 236.351562 152.574219 236.910156 152.050781 237.515625 151.574219 C 238.121094 151.09375 238.761719 150.671875 239.4375 150.308594 C 240.117188 149.941406 240.820312 149.636719 241.550781 149.390625 C 242.28125 149.148438 243.027344 148.96875 243.789062 148.851562 C 244.550781 148.738281 245.316406 148.6875 246.085938 148.703125 L 308.273438 147.90625 C 309.289062 147.898438 310.289062 148.007812 311.277344 148.230469 C 312.265625 148.453125 313.21875 148.785156 314.128906 149.222656 C 315.042969 149.660156 315.894531 150.199219 316.6875 150.832031 C 317.480469 151.464844 318.1875 152.175781 318.816406 152.972656 L 372.199219 219.628906 C 373.375 221.089844 374.207031 222.722656 374.695312 224.535156 C 375.183594 226.34375 375.285156 228.175781 375 230.027344 L 361.65625 310.019531 C 361.527344 310.800781 361.332031 311.566406 361.070312 312.3125 C 360.804688 313.0625 360.476562 313.78125 360.085938 314.46875 C 359.695312 315.160156 359.246094 315.808594 358.738281 316.417969 C 358.230469 317.027344 357.671875 317.585938 357.066406 318.09375 C 356.457031 318.605469 355.808594 319.058594 355.121094 319.453125 C 354.433594 319.847656 353.714844 320.175781 352.96875 320.441406 C 352.222656 320.710938 351.457031 320.90625 350.671875 321.039062 C 349.890625 321.167969 349.101562 321.226562 348.308594 321.21875 Z M 348.308594 321.21875 " fill-opacity="1" fill-rule="nonzero"/><path fill="rgb(100%, 100%, 100%)" d="M 161.476562 174.570312 L 14.679688 174.570312 C 13.804688 174.570312 12.9375 174.484375 12.078125 174.3125 C 11.214844 174.140625 10.382812 173.890625 9.574219 173.554688 C 8.761719 173.21875 7.992188 172.808594 7.265625 172.320312 C 6.535156 171.835938 5.863281 171.28125 5.242188 170.664062 C 4.625 170.042969 4.070312 169.371094 3.582031 168.644531 C 3.097656 167.914062 2.6875 167.148438 2.351562 166.339844 C 2.015625 165.53125 1.761719 164.695312 1.589844 163.835938 C 1.421875 162.980469 1.335938 162.113281 1.335938 161.238281 C 1.335938 160.363281 1.421875 159.496094 1.589844 158.636719 C 1.761719 157.777344 2.015625 156.945312 2.351562 156.136719 C 2.6875 155.328125 3.097656 154.558594 3.582031 153.832031 C 4.070312 153.101562 4.625 152.429688 5.242188 151.808594 C 5.863281 151.191406 6.535156 150.636719 7.265625 150.152344 C 7.992188 149.664062 8.761719 149.253906 9.574219 148.917969 C 10.382812 148.585938 11.214844 148.332031 12.078125 148.160156 C 12.9375 147.992188 13.804688 147.90625 14.679688 147.90625 L 161.476562 147.90625 C 162.351562 147.90625 163.222656 147.992188 164.082031 148.160156 C 164.941406 148.332031 165.773438 148.585938 166.582031 148.917969 C 167.394531 149.253906 168.164062 149.664062 168.890625 150.152344 C 169.621094 150.636719 170.292969 151.191406 170.914062 151.808594 C 171.53125 152.429688 172.085938 153.101562 172.574219 153.832031 C 173.058594 154.558594 173.472656 155.328125 173.804688 156.136719 C 174.140625 156.945312 174.394531 157.777344 174.566406 158.636719 C 174.738281 159.496094 174.820312 160.363281 174.820312 161.238281 C 174.820312 162.113281 174.738281 162.980469 174.566406 163.835938 C 174.394531 164.695312 174.140625 165.53125 173.804688 166.339844 C 173.472656 167.148438 173.058594 167.914062 172.574219 168.644531 C 172.085938 169.371094 171.53125 170.042969 170.914062 170.664062 C 170.292969 171.28125 169.621094 171.835938 168.890625 172.320312 C 168.164062 172.808594 167.394531 173.21875 166.582031 173.554688 C 165.773438 173.890625 164.941406 174.140625 164.082031 174.3125 C 163.222656 174.484375 162.351562 174.570312 161.476562 174.570312 Z M 161.476562 174.570312 " fill-opacity="1" fill-rule="nonzero"/><path fill="rgb(100%, 100%, 100%)" d="M 148.132812 214.5625 L 14.679688 214.5625 C 13.804688 214.5625 12.9375 214.476562 12.078125 214.308594 C 11.214844 214.136719 10.382812 213.882812 9.574219 213.550781 C 8.761719 213.214844 7.992188 212.804688 7.265625 212.316406 C 6.535156 211.832031 5.863281 211.277344 5.242188 210.660156 C 4.625 210.039062 4.070312 209.367188 3.582031 208.640625 C 3.097656 207.910156 2.6875 207.144531 2.351562 206.332031 C 2.015625 205.523438 1.761719 204.691406 1.589844 203.832031 C 1.421875 202.972656 1.335938 202.105469 1.335938 201.230469 C 1.335938 200.355469 1.421875 199.488281 1.589844 198.632812 C 1.761719 197.773438 2.015625 196.9375 2.351562 196.128906 C 2.6875 195.320312 3.097656 194.554688 3.582031 193.824219 C 4.070312 193.097656 4.625 192.425781 5.242188 191.804688 C 5.863281 191.1875 6.535156 190.632812 7.265625 190.148438 C 7.992188 189.660156 8.761719 189.25 9.574219 188.914062 C 10.382812 188.582031 11.214844 188.328125 12.078125 188.15625 C 12.9375 187.984375 13.804688 187.898438 14.679688 187.898438 L 148.132812 187.898438 C 149.007812 187.898438 149.875 187.984375 150.734375 188.15625 C 151.59375 188.328125 152.429688 188.582031 153.238281 188.914062 C 154.046875 189.25 154.816406 189.660156 155.546875 190.148438 C 156.273438 190.632812 156.949219 191.1875 157.566406 191.804688 C 158.1875 192.425781 158.742188 193.097656 159.226562 193.824219 C 159.714844 194.554688 160.125 195.320312 160.460938 196.128906 C 160.796875 196.9375 161.050781 197.773438 161.21875 198.632812 C 161.390625 199.488281 161.476562 200.355469 161.476562 201.230469 C 161.476562 202.105469 161.390625 202.972656 161.21875 203.832031 C 161.050781 204.691406 160.796875 205.523438 160.460938 206.332031 C 160.125 207.144531 159.714844 207.910156 159.226562 208.640625 C 158.742188 209.367188 158.1875 210.039062 157.566406 210.660156 C 156.949219 211.277344 156.273438 211.832031 155.546875 212.316406 C 154.816406 212.804688 154.046875 213.214844 153.238281 213.550781 C 152.429688 213.882812 151.59375 214.136719 150.734375 214.308594 C 149.875 214.476562 149.007812 214.5625 148.132812 214.5625 Z M 148.132812 214.5625 " fill-opacity="1" fill-rule="nonzero"/><path fill="rgb(100%, 100%, 100%)" d="M 134.785156 254.558594 L 14.679688 254.558594 C 13.804688 254.558594 12.9375 254.472656 12.078125 254.304688 C 11.214844 254.132812 10.382812 253.878906 9.574219 253.542969 C 8.761719 253.210938 7.992188 252.796875 7.265625 252.3125 C 6.535156 251.824219 5.863281 251.273438 5.242188 250.652344 C 4.625 250.035156 4.070312 249.363281 3.582031 248.632812 C 3.097656 247.90625 2.6875 247.136719 2.351562 246.328125 C 2.015625 245.519531 1.761719 244.6875 1.589844 243.828125 C 1.421875 242.96875 1.335938 242.101562 1.335938 241.226562 C 1.335938 240.351562 1.421875 239.484375 1.589844 238.625 C 1.761719 237.769531 2.015625 236.933594 2.351562 236.125 C 2.6875 235.316406 3.097656 234.546875 3.582031 233.820312 C 4.070312 233.09375 4.625 232.417969 5.242188 231.800781 C 5.863281 231.179688 6.535156 230.628906 7.265625 230.140625 C 7.992188 229.65625 8.761719 229.246094 9.574219 228.910156 C 10.382812 228.574219 11.214844 228.324219 12.078125 228.152344 C 12.9375 227.980469 13.804688 227.894531 14.679688 227.894531 L 134.785156 227.894531 C 135.664062 227.894531 136.53125 227.980469 137.390625 228.152344 C 138.25 228.324219 139.082031 228.574219 139.894531 228.910156 C 140.703125 229.246094 141.472656 229.65625 142.199219 230.140625 C 142.929688 230.628906 143.601562 231.179688 144.222656 231.800781 C 144.84375 232.417969 145.394531 233.09375 145.882812 233.820312 C 146.371094 234.546875 146.78125 235.316406 147.117188 236.125 C 147.449219 236.933594 147.703125 237.769531 147.875 238.625 C 148.046875 239.484375 148.132812 240.351562 148.132812 241.226562 C 148.132812 242.101562 148.046875 242.96875 147.875 243.828125 C 147.703125 244.6875 147.449219 245.519531 147.117188 246.328125 C 146.78125 247.136719 146.371094 247.90625 145.882812 248.632812 C 145.394531 249.363281 144.84375 250.035156 144.222656 250.652344 C 143.601562 251.273438 142.929688 251.824219 142.199219 252.3125 C 141.472656 252.796875 140.703125 253.210938 139.894531 253.542969 C 139.082031 253.878906 138.25 254.132812 137.390625 254.304688 C 136.53125 254.472656 135.664062 254.558594 134.785156 254.558594 Z M 134.785156 254.558594 " fill-opacity="1" fill-rule="nonzero"/><path fill="rgb(100%, 100%, 100%)" d="M 281.582031 214.5625 L 241.546875 214.5625 C 240.671875 214.5625 239.804688 214.476562 238.945312 214.308594 C 238.085938 214.136719 237.25 213.882812 236.441406 213.550781 C 235.632812 213.214844 234.863281 212.804688 234.132812 212.316406 C 233.40625 211.832031 232.730469 211.277344 232.113281 210.660156 C 231.492188 210.039062 230.9375 209.367188 230.453125 208.640625 C 229.964844 207.910156 229.554688 207.144531 229.21875 206.332031 C 228.882812 205.523438 228.628906 204.691406 228.460938 203.832031 C 228.289062 202.972656 228.203125 202.105469 228.203125 201.230469 C 228.203125 200.355469 228.289062 199.488281 228.460938 198.632812 C 228.628906 197.773438 228.882812 196.9375 229.21875 196.128906 C 229.554688 195.320312 229.964844 194.554688 230.453125 193.824219 C 230.9375 193.097656 231.492188 192.425781 232.113281 191.804688 C 232.730469 191.1875 233.40625 190.632812 234.132812 190.148438 C 234.863281 189.660156 235.632812 189.25 236.441406 188.914062 C 237.25 188.582031 238.085938 188.328125 238.945312 188.15625 C 239.804688 187.984375 240.671875 187.898438 241.546875 187.898438 L 281.582031 187.898438 C 282.460938 187.898438 283.328125 187.984375 284.1875 188.15625 C 285.046875 188.328125 285.882812 188.582031 286.691406 188.914062 C 287.5 189.25 288.269531 189.660156 288.996094 190.148438 C 289.726562 190.632812 290.402344 191.1875 291.019531 191.804688 C 291.640625 192.425781 292.191406 193.097656 292.679688 193.824219 C 293.167969 194.554688 293.578125 195.320312 293.914062 196.128906 C 294.25 196.9375 294.5 197.773438 294.671875 198.632812 C 294.84375 199.488281 294.929688 200.355469 294.929688 201.230469 C 294.929688 202.105469 294.84375 202.972656 294.671875 203.832031 C 294.5 204.691406 294.25 205.523438 293.914062 206.332031 C 293.578125 207.144531 293.167969 207.910156 292.679688 208.640625 C 292.191406 209.367188 291.640625 210.039062 291.019531 210.660156 C 290.402344 211.277344 289.726562 211.832031 288.996094 212.316406 C 288.269531 212.804688 287.5 213.214844 286.691406 213.550781 C 285.882812 213.882812 285.046875 214.136719 284.1875 214.308594 C 283.328125 214.476562 282.460938 214.5625 281.582031 214.5625 Z M 281.582031 214.5625 " fill-opacity="1" fill-rule="nonzero"/></svg>