<svg xmlns="http://www.w3.org/2000/svg" xmlns:xlink="http://www.w3.org/1999/xlink" width="500" zoomAndPan="magnify" viewBox="0 0 375 374.999991" height="500" preserveAspectRatio="xMidYMid meet" version="1.0"><defs><clipPath id="id1"><path d="M 7.265625 0 L 368 0 L 368 375 L 7.265625 375 Z M 7.265625 0 " clip-rule="nonzero"/></clipPath></defs><g clip-path="url(#id1)"><path fill="rgb(100%, 100%, 100%)" d="M 176.664062 60.472656 C 174.007812 60.488281 171.695312 62.164062 170.882812 64.695312 C 169.652344 68.625 172.546875 72.570312 176.664062 72.59375 L 188.792969 72.59375 C 191.453125 72.578125 193.761719 70.902344 194.574219 68.371094 C 195.808594 64.441406 192.910156 60.496094 188.792969 60.472656 Z M 79.566406 1.277344 L 56.179688 14.769531 L 131.996094 58.507812 L 131.996094 90.917969 C 131.996094 92.210938 131.355469 93.324219 130.230469 93.972656 L 112.65625 104.109375 C 112.097656 104.433594 111.453125 104.433594 110.894531 104.109375 C 110.332031 103.785156 110.011719 103.230469 110.011719 102.582031 L 110.011719 71.191406 L 34.195312 27.453125 L 10.808594 40.941406 C 8.5625 42.238281 7.277344 44.460938 7.277344 47.050781 L 7.277344 126.382812 C 7.277344 128.972656 8.5625 131.199219 10.808594 132.492188 L 79.566406 172.160156 C 81.808594 173.453125 84.378906 173.453125 86.625 172.160156 L 155.382812 132.492188 C 157.625 131.195312 158.910156 128.972656 158.910156 126.382812 L 158.910156 47.054688 C 158.910156 44.460938 157.625 42.238281 155.382812 40.945312 L 86.625 1.277344 C 84.378906 -0.015625 81.808594 -0.015625 79.566406 1.277344 Z M 367.925781 352.972656 C 367.925781 365.136719 336.636719 374.996094 298.035156 374.996094 C 259.433594 374.996094 228.144531 365.136719 228.144531 352.972656 C 228.144531 344.320312 243.964844 336.835938 266.984375 333.234375 C 270.25 337.679688 273.476562 341.917969 276.539062 345.867188 C 270.347656 347.480469 266.472656 349.78125 266.472656 352.339844 C 266.472656 357.222656 280.601562 361.179688 298.035156 361.179688 C 315.46875 361.179688 329.601562 357.222656 329.601562 352.339844 C 329.601562 349.785156 325.738281 347.488281 319.5625 345.875 C 322.640625 341.921875 325.882812 337.683594 329.15625 333.246094 C 352.136719 336.851562 367.925781 344.332031 367.925781 352.972656 Z M 298.035156 203.054688 C 267.5 203.054688 242.75 227.785156 242.75 258.296875 C 242.75 283.652344 279.605469 330.476562 296.683594 351.78125 C 297.023438 352.203125 297.492188 352.429688 298.035156 352.429688 C 298.578125 352.429688 299.046875 352.207031 299.386719 351.78125 C 315.757812 331.394531 353.320312 284.347656 353.320312 258.296875 C 353.320312 227.785156 328.570312 203.054688 298.035156 203.054688 Z M 298.035156 229.285156 C 314.035156 229.285156 327.003906 242.242188 327.003906 258.230469 C 327.003906 274.214844 314.035156 287.175781 298.035156 287.175781 C 282.035156 287.175781 269.066406 274.21875 269.066406 258.230469 C 269.066406 242.242188 282.035156 229.285156 298.035156 229.285156 Z M 225.1875 60.472656 C 222.527344 60.488281 220.21875 62.164062 219.40625 64.695312 C 218.171875 68.625 221.070312 72.570312 225.1875 72.59375 L 237.316406 72.59375 C 239.972656 72.578125 242.285156 70.902344 243.097656 68.371094 C 244.328125 64.441406 241.433594 60.496094 237.316406 60.472656 Z M 275.339844 64.007812 C 270.738281 62.4375 266.265625 66.585938 267.492188 71.292969 C 268.03125 73.257812 269.441406 74.789062 271.371094 75.460938 C 274.828125 76.644531 278.113281 78.160156 281.261719 80.011719 C 283.703125 81.457031 286.816406 81.019531 288.765625 78.957031 C 291.433594 76.113281 290.789062 71.582031 287.445312 69.582031 C 283.59375 67.320312 279.566406 65.457031 275.339844 64.007812 Z M 313.929688 98.800781 C 312 94.644531 306.371094 94.039062 303.585938 97.679688 C 302.234375 99.480469 301.972656 101.824219 302.910156 103.875 C 304.445312 107.179688 305.621094 110.601562 306.457031 114.144531 C 307.496094 118.539062 312.757812 120.316406 316.246094 117.4375 C 318.011719 115.957031 318.792969 113.65625 318.273438 111.410156 C 317.253906 107.070312 315.808594 102.847656 313.929688 98.800781 Z M 315.632812 150.730469 C 317.289062 146.46875 313.800781 141.980469 309.253906 142.519531 C 307.003906 142.808594 305.160156 144.230469 304.328125 146.339844 C 303.015625 149.75 301.375 152.980469 299.410156 156.058594 C 297.28125 159.402344 298.828125 163.792969 302.578125 165.078125 C 305.230469 165.957031 308.097656 164.957031 309.617188 162.609375 C 312.015625 158.855469 314.035156 154.890625 315.632812 150.730469 Z M 279.429688 187.992188 C 283.597656 186.234375 284.464844 180.765625 281.042969 177.800781 C 279.28125 176.308594 276.898438 175.921875 274.757812 176.808594 C 271.414062 178.214844 267.921875 179.269531 264.359375 179.96875 C 261.328125 180.5625 259.234375 183.296875 259.460938 186.375 C 259.746094 189.996094 263.082031 192.550781 266.65625 191.871094 C 271.042969 191.007812 275.308594 189.726562 279.429688 187.992188 Z M 229.1875 193.085938 C 231.84375 193.070312 234.15625 191.394531 234.96875 188.863281 C 236.203125 184.933594 233.304688 180.988281 229.1875 180.964844 L 217.058594 180.964844 C 214.398438 180.980469 212.089844 182.65625 211.277344 185.1875 C 210.042969 189.117188 212.941406 193.0625 217.058594 193.085938 Z M 180.664062 193.085938 C 183.320312 193.070312 185.632812 191.394531 186.449219 188.863281 C 187.679688 184.933594 184.78125 180.988281 180.664062 180.964844 L 168.535156 180.964844 C 165.878906 180.980469 163.566406 182.65625 162.753906 185.1875 C 161.523438 189.117188 164.417969 193.0625 168.535156 193.085938 Z M 134.757812 196.476562 C 138.855469 194.886719 139.992188 189.675781 136.902344 186.539062 C 135.179688 184.832031 132.710938 184.300781 130.4375 185.148438 C 126.253906 186.730469 122.289062 188.695312 118.503906 191.074219 C 114.519531 193.609375 114.824219 199.511719 119.054688 201.621094 C 120.972656 202.5625 123.1875 202.453125 124.996094 201.3125 C 128.085938 199.363281 131.34375 197.765625 134.757812 196.476562 Z M 104.042969 225.78125 C 105.121094 223.238281 104.351562 220.324219 102.179688 218.625 C 99.011719 216.195312 94.449219 217.382812 92.875 221.050781 C 91.117188 225.160156 89.792969 229.402344 88.902344 233.785156 C 88.199219 237.363281 90.753906 240.722656 94.394531 241.011719 C 97.460938 241.234375 100.191406 239.160156 100.796875 236.148438 C 101.527344 232.578125 102.613281 229.132812 104.042969 225.78125 Z M 103.835938 268.269531 C 101.871094 263.6875 95.550781 263.28125 93.015625 267.585938 C 92.046875 269.253906 91.917969 271.230469 92.671875 273.007812 C 94.40625 277.125 96.511719 281.007812 99.027344 284.699219 C 101.535156 288.3125 106.867188 288.1875 109.199219 284.453125 C 110.449219 282.386719 110.398438 279.84375 109.035156 277.847656 C 106.96875 274.808594 105.261719 271.65625 103.835938 268.269531 Z M 134.265625 297.878906 C 130.21875 296.363281 125.964844 299.359375 126.039062 303.679688 C 126.109375 306.167969 127.621094 308.304688 129.941406 309.203125 C 134.101562 310.800781 138.433594 311.984375 142.828125 312.703125 C 147.1875 313.382812 150.78125 309.394531 149.644531 305.128906 C 149.003906 302.824219 147.117188 301.117188 144.746094 300.734375 C 141.160156 300.144531 137.65625 299.183594 134.265625 297.878906 Z M 180.136719 301.457031 C 177.480469 301.46875 175.167969 303.148438 174.355469 305.679688 C 173.125 309.609375 176.019531 313.554688 180.136719 313.578125 L 192.265625 313.578125 C 194.921875 313.5625 197.234375 311.882812 198.046875 309.355469 C 199.28125 305.425781 196.382812 301.476562 192.265625 301.457031 Z M 228.660156 301.457031 L 240.789062 301.457031 C 244.90625 301.476562 247.800781 305.425781 246.570312 309.355469 C 245.757812 311.882812 243.445312 313.5625 240.789062 313.578125 L 228.660156 313.578125 C 224.542969 313.554688 221.644531 309.609375 222.878906 305.679688 C 223.691406 303.148438 226.003906 301.46875 228.660156 301.457031 Z M 228.660156 301.457031 " fill-opacity="1" fill-rule="evenodd"/></g></svg>